<svg width="78" height="28" viewBox="0 0 78 28" fill="none" xmlns="http://www.w3.org/2000/svg">
    <path d="M36.84 17.76C36.664 17.888 36.472 17.888 36.264 17.76L34.272 16.44C34.064 16.312 34.064 16.192 34.272 16.08C34.896 15.68 35.456 15.168 35.952 14.544C36.448 13.904 36.84 13.16 37.128 12.312C37.432 11.448 37.592 10.496 37.608 9.456H41.4C41.336 10.592 41.072 11.704 40.608 12.792C40.16 13.88 39.6 14.856 38.928 15.72C38.256 16.584 37.56 17.264 36.84 17.76ZM41.88 17.448C41.656 17.432 41.512 17.32 41.448 17.112C41.304 16.648 41.136 16.208 40.944 15.792C40.752 15.36 40.512 14.968 40.224 14.616C39.936 14.264 39.56 13.976 39.096 13.752L40.2 12.24C40.76 12.368 41.288 12.56 41.784 12.816C42.296 13.056 42.744 13.336 43.128 13.656C43.528 13.976 43.84 14.304 44.064 14.64C44.288 14.976 44.4 15.296 44.4 15.6C44.4 16.128 44.144 16.568 43.632 16.92C43.12 17.272 42.536 17.448 41.88 17.448ZM35.088 10.824C34.848 10.872 34.712 10.784 34.68 10.56L34.272 8.304C34.256 8.176 34.264 8.088 34.296 8.04C34.328 7.992 34.408 7.976 34.536 7.992C35.176 8.024 35.896 8.048 36.696 8.064C37.496 8.064 38.304 8.064 39.12 8.064C39.952 8.048 40.728 8.032 41.448 8.016C42.184 7.984 42.8 7.944 43.296 7.896L41.616 8.208L43.224 7.2C43.4 7.104 43.552 7.144 43.68 7.32C43.808 7.608 43.952 7.96 44.112 8.376C44.272 8.776 44.432 9.272 44.592 9.864C44.72 10.28 44.72 10.536 44.592 10.632C44.464 10.712 44.008 10.704 43.224 10.608C42.2 10.512 41.2 10.456 40.224 10.44C39.248 10.424 38.328 10.448 37.464 10.512C36.6 10.576 35.808 10.68 35.088 10.824ZM37.536 6.312C37.52 6.088 37.624 5.968 37.848 5.952L41.448 5.712C41.688 5.696 41.784 5.8 41.736 6.024L41.424 8.88H37.704L37.536 6.312ZM47.52 14.616V11.304H51.48V14.616H47.52ZM50.256 17.952C50.032 17.952 49.92 17.84 49.92 17.616V7.248L49.728 5.136C49.712 5.008 49.72 4.92 49.752 4.872C49.8 4.824 49.888 4.8 50.016 4.8H54.192C54.432 4.8 54.496 4.904 54.384 5.112C54.304 5.288 54.216 5.464 54.12 5.64C54.024 5.816 53.928 5.984 53.832 6.144V16.992C53.832 17.328 53.672 17.568 53.352 17.712C53.048 17.856 52.616 17.928 52.056 17.928L50.256 17.952ZM45.744 17.976C45.52 17.976 45.408 17.864 45.408 17.64V7.704L45.216 5.64C45.2 5.416 45.304 5.304 45.528 5.304H48.984C49.208 5.304 49.288 5.408 49.224 5.616C49.176 5.792 49.128 5.976 49.08 6.168C49.032 6.36 48.992 6.52 48.96 6.648V17.04C48.96 17.376 48.8 17.616 48.48 17.76C48.176 17.904 47.744 17.976 47.184 17.976H45.744ZM39.144 22.392C38.92 22.44 38.776 22.344 38.712 22.104L37.992 19.392C37.96 19.264 37.96 19.176 37.992 19.128C38.024 19.08 38.104 19.056 38.232 19.056C40.296 19.12 42.32 19.152 44.304 19.152C46.288 19.152 48.312 19.12 50.376 19.056L50.088 21.888C48.28 21.872 46.432 21.912 44.544 22.008C42.672 22.088 40.872 22.216 39.144 22.392ZM49.08 26.52C48.856 26.52 48.744 26.408 48.744 26.184V21.432L49.92 19.2L50.976 18.672C51.184 18.56 51.384 18.568 51.576 18.696C52.04 18.952 52.472 19.248 52.872 19.584C53.288 19.904 53.648 20.24 53.952 20.592C54.096 20.768 54.096 20.944 53.952 21.12L53.544 21.6V25.296C53.544 25.632 53.384 25.888 53.064 26.064C52.76 26.24 52.328 26.36 51.768 26.424C51.304 26.456 50.832 26.48 50.352 26.496C49.872 26.528 49.448 26.536 49.08 26.52ZM67.5285 16.728C67.3045 16.744 67.1925 16.64 67.1925 16.416V7.104L67.0965 6.672C67.0805 6.544 67.0885 6.456 67.1205 6.408C67.1525 6.36 67.2325 6.336 67.3605 6.336H70.0245C70.2645 6.336 70.3285 6.44 70.2165 6.648C70.1845 6.728 70.1445 6.816 70.0965 6.912C70.0645 6.992 70.0325 7.072 70.0005 7.152V15.528C70.0005 15.816 69.9685 16.032 69.9045 16.176C69.8565 16.32 69.7125 16.424 69.4725 16.488C69.2485 16.552 68.8725 16.608 68.3445 16.656L67.5285 16.728ZM58.1925 16.008V13.752H62.1525V16.008H58.1925ZM56.9445 16.848C56.7205 16.864 56.6085 16.76 56.6085 16.536V7.104L56.5125 6.672C56.4965 6.544 56.5045 6.456 56.5365 6.408C56.5685 6.36 56.6485 6.336 56.7765 6.336H59.3445C59.5685 6.336 59.6485 6.44 59.5845 6.648C59.5685 6.728 59.5445 6.816 59.5125 6.912C59.4965 6.992 59.4725 7.072 59.4405 7.152V15.672C59.4405 15.96 59.4085 16.176 59.3445 16.32C59.2965 16.464 59.1525 16.568 58.9125 16.632C58.6885 16.68 58.3125 16.728 57.7845 16.776L56.9445 16.848ZM65.1045 16.008V13.752H69.1605V16.008H65.1045ZM60.6165 16.728C60.3925 16.744 60.2805 16.64 60.2805 16.416V7.104L60.1845 6.672C60.1685 6.544 60.1765 6.456 60.2085 6.408C60.2405 6.36 60.3205 6.336 60.4485 6.336H62.7765C62.9045 6.336 62.9845 6.36 63.0165 6.408C63.0645 6.456 63.0805 6.544 63.0645 6.672C63.0485 6.752 63.0325 6.832 63.0165 6.912C63.0165 6.992 63.0085 7.072 62.9925 7.152V15.528C62.9925 15.816 62.9605 16.032 62.8965 16.176C62.8485 16.32 62.7045 16.424 62.4645 16.488C62.2405 16.552 61.8645 16.608 61.3365 16.656L60.6165 16.728ZM58.1925 11.496V9.264H62.1525V11.496H58.1925ZM64.0005 16.848C63.7765 16.864 63.6645 16.76 63.6645 16.536V7.104V6.672C63.6645 6.448 63.7765 6.336 64.0005 6.336H66.2805C66.5045 6.336 66.5765 6.44 66.4965 6.648C66.4805 6.744 66.4565 6.832 66.4245 6.912C66.4085 6.992 66.3845 7.072 66.3525 7.152V15.672C66.3525 15.96 66.3205 16.176 66.2565 16.32C66.2085 16.464 66.0645 16.568 65.8245 16.632C65.6005 16.696 65.2245 16.752 64.6965 16.8L64.0005 16.848ZM65.1045 11.496V9.264H69.1605V11.496H65.1045ZM71.2965 17.592C71.0725 17.592 70.9605 17.48 70.9605 17.256V7.248L70.7685 5.136C70.7525 5.008 70.7605 4.92 70.7925 4.872C70.8405 4.824 70.9285 4.8 71.0565 4.8H75.5925C75.8325 4.8 75.8965 4.904 75.7845 5.112C75.7045 5.304 75.6085 5.488 75.4965 5.664C75.4005 5.84 75.3045 6 75.2085 6.144V16.608C75.2085 16.944 75.0485 17.184 74.7285 17.328C74.4245 17.472 73.9925 17.552 73.4325 17.568L71.2965 17.592ZM73.7445 14.04V11.808H74.2485L76.3125 11.016C76.5045 10.936 76.6565 10.992 76.7685 11.184C76.9925 11.632 77.1685 12.104 77.2965 12.6C77.4245 13.08 77.5125 13.56 77.5605 14.04C77.5765 14.168 77.5605 14.256 77.5125 14.304C77.4805 14.352 77.4005 14.368 77.2725 14.352L73.7445 14.04ZM67.1205 26.592C65.6485 26.592 64.3125 26.424 63.1125 26.088C61.9125 25.768 60.9605 25.28 60.2565 24.624C59.5525 23.984 59.2005 23.184 59.2005 22.224C59.2005 21.264 59.5525 20.464 60.2565 19.824C60.9605 19.184 61.9125 18.704 63.1125 18.384C64.3125 18.048 65.6485 17.88 67.1205 17.88C68.6085 17.88 69.9445 18.048 71.1285 18.384C72.3285 18.704 73.2725 19.184 73.9605 19.824C74.6645 20.464 75.0165 21.264 75.0165 22.224C75.0165 23.184 74.6645 23.984 73.9605 24.624C73.2725 25.28 72.3285 25.768 71.1285 26.088C69.9445 26.424 68.6085 26.592 67.1205 26.592ZM67.1205 23.88C67.6645 23.88 68.1365 23.816 68.5365 23.688C68.9365 23.56 69.2485 23.376 69.4725 23.136C69.6965 22.88 69.8085 22.568 69.8085 22.2C69.8085 21.848 69.6965 21.552 69.4725 21.312C69.2485 21.056 68.9365 20.864 68.5365 20.736C68.1365 20.608 67.6645 20.544 67.1205 20.544C66.5925 20.544 66.1285 20.608 65.7285 20.736C65.3285 20.864 65.0165 21.056 64.7925 21.312C64.5685 21.552 64.4565 21.848 64.4565 22.2C64.4565 22.568 64.5685 22.88 64.7925 23.136C65.0165 23.376 65.3285 23.56 65.7285 23.688C66.1285 23.816 66.5925 23.88 67.1205 23.88Z" fill="#1D4ED8"/>
    <path d="M14.751 5.46875C14.5522 5.46875 14.3808 5.35365 14.3573 5.19749C14.2954 4.78931 13.9852 3.8945 13.4672 3.8945C13.248 3.8945 13.0703 3.75722 13.0703 3.58787C13.0703 3.41853 13.248 3.28125 13.4672 3.28125C14.8315 3.28125 15.1176 4.93811 15.1458 5.12703C15.1709 5.29527 15.0146 5.44733 14.7969 5.46668C14.7815 5.46812 14.7661 5.46875 14.751 5.46875Z" fill="#F7A872"/>
    <path d="M16.5703 2.88326V2.29688H15.9839C15.2507 2.29688 14.6562 2.8913 14.6562 3.62455V4.21094H15.2426C15.9759 4.21094 16.5703 3.61652 16.5703 2.88326Z" fill="#16A34A"/>
    <path d="M16.6492 12.6165C18.2448 11.8576 19.3479 10.231 19.3479 8.34643C19.3479 5.73625 17.2319 3.28215 14.6217 4.97276C12.0115 3.28215 9.89551 5.73625 9.89551 8.34643C9.89551 10.231 10.9986 11.8576 12.5942 12.6165C12.8927 12.7586 16.3507 12.7586 16.6492 12.6165Z" fill="#DC2626"/>
    <path d="M25.1163 28H5.28532C4.09538 28 3.01716 27.5172 2.23704 26.7371C1.45774 25.9569 0.974854 24.8795 0.974854 23.6888C0.974854 21.3081 2.90461 19.3775 5.28527 19.3775L15.8767 17.1678L25.1163 19.3775" fill="#1D4ED8"/>
    <path d="M25.7186 21.1333H13.6377V26.5613H25.7186V21.1333Z" fill="#E6E6E6"/>
    <path d="M27.0251 21.841H16.0063C14.988 21.841 14.1594 22.6704 14.1594 23.6887C14.1594 24.7078 14.9879 25.5364 16.0063 25.5364H27.0251V27.9999H16.0063C14.8163 27.9999 13.7381 27.5171 12.958 26.737C12.1787 25.9569 11.6958 24.8795 11.6958 23.6887C11.6958 21.3081 13.6256 19.3774 16.0062 19.3774L20.0314 17.3018L25.4167 19.3774H27.0251V21.841Z" fill="#3B82F6"/>
    <path d="M25.4167 12.7366H13.6562V12.7403C13.6229 12.7382 13.5895 12.7366 13.5557 12.7366H1.79517V14.747H2.90078V17.3673H1.79517V19.3778H13.5557C13.5896 19.3778 13.623 19.3763 13.6562 19.374V19.3778H25.4168C26.2384 19.3778 26.9052 18.711 26.9052 17.8894V14.2243C26.9052 13.4027 26.2383 12.7366 25.4167 12.7366Z" fill="#F4BD64"/>
    <path d="M13.6376 13.9962H2.90112V18.1176H13.6376V13.9962Z" fill="#CCCCCC"/>
    <path d="M1.79517 17.3673H13.0337V14.747H1.79517V12.7365H13.5557C14.3773 12.7365 15.0441 13.4027 15.0441 14.2242V17.8893C15.0441 18.711 14.3773 19.3778 13.5557 19.3778H1.79517V17.3673Z" fill="#DDA758"/>
    <path d="M14.6543 12.6167C14.7467 12.6609 15.1415 12.6911 15.6521 12.7079C14.5135 12.7454 12.8 12.7146 12.5942 12.6167C10.9986 11.8574 9.89551 10.231 9.89551 8.34649C9.89551 5.95336 11.6741 3.6916 13.9808 4.63517C12.7564 5.19408 11.9556 6.74081 11.9556 8.34649C11.9555 10.231 13.0586 11.8574 14.6543 12.6167Z" fill="#B91C1C"/>
</svg>